<?xml version="1.0" standalone="no"?>
<!DOCTYPE svg PUBLIC "-//W3C//DTD SVG 20010904//EN"
 "http://www.w3.org/TR/2001/REC-SVG-20010904/DTD/svg10.dtd">
<svg version="1.0" xmlns="http://www.w3.org/2000/svg"
 width="700.000000pt" height="700.000000pt" viewBox="0 0 700.000000 700.000000"
 preserveAspectRatio="xMidYMid meet">
<metadata>
Created by potrace 1.14, written by Peter Selinger 2001-2017
</metadata>
<g transform="translate(0.000000,700.000000) scale(0.100000,-0.100000)"
fill="#000000" stroke="none">
<path d="M590 6221 c-97 -20 -183 -90 -226 -184 l-29 -62 0 -2455 c-1 -1710 2
-2469 10 -2500 27 -113 105 -197 214 -230 65 -20 93 -20 2966 -18 l2900 3 55
28 c63 33 103 67 135 117 52 83 49 -67 51 2555 1 1359 -3 2462 -8 2490 -21
123 -103 212 -228 249 -48 14 -332 16 -2929 15 -1582 -1 -2892 -4 -2911 -8z"/>
</g>
</svg>
